<svg width="7" height="12" viewBox="0 0 7 12" fill="none" xmlns="http://www.w3.org/2000/svg">
<path opacity="0.249693" d="M5.99864 5.94718C5.99234 5.84596 5.95236 5.74977 5.88506 5.6739L1.79607 1.13106C1.68716 1.00939 1.52152 0.955216 1.36175 0.989015C1.20199 1.02281 1.07248 1.13943 1.02218 1.29478C0.971889 1.45012 1.00848 1.6205 1.11813 1.7415L4.9338 5.97913L1.11813 10.2167C1.00848 10.3377 0.971887 10.5081 1.02218 10.6635C1.07248 10.8188 1.20199 10.9354 1.36175 10.9692C1.52152 11.003 1.68716 10.9489 1.79607 10.8272L5.88506 6.28435C5.96718 6.19207 6.00819 6.07034 5.99864 5.94718Z" fill="black" stroke="black" stroke-width="1.2"/>
</svg>
