<svg width="15" height="15" viewBox="0 0 15 15" fill="none" xmlns="http://www.w3.org/2000/svg">
<path d="M6.50545 9C6.36968 9 6.26059 8.94561 6.17818 8.83688L4.49818 6.68085L5.16 6.02128L6.89818 8.26241C6.96605 8.35226 7 8.44916 7 8.55319C7 8.68559 6.94909 8.79433 6.84727 8.87943C6.74546 8.9598 6.6315 9 6.50545 9ZM6.59273 4C6.70909 4 6.80364 4.04728 6.87636 4.14184C6.95395 4.23168 6.99273 4.32388 6.99273 4.41844C6.99273 4.51773 6.94909 4.60993 6.86182 4.69504L3.81455 7.53901L3.77818 6.52482L6.23636 4.16312C6.34786 4.05438 6.46668 4 6.59273 4ZM3.45091 9C3.31514 9 3.20605 8.9598 3.12364 8.87943C3.04123 8.79433 3 8.69029 3 8.56738V4.46809C3 4.34516 3.04364 4.2435 3.13091 4.16312C3.21818 4.07801 3.32968 4.03546 3.46545 4.03546C3.60123 4.03546 3.70786 4.07801 3.78545 4.16312C3.86786 4.2435 3.90909 4.34516 3.90909 4.46809V8.56738C3.90909 8.69029 3.86786 8.79433 3.78545 8.87943C3.70304 8.9598 3.5915 9 3.45091 9Z" fill="#272643"/>
<path d="M10.0116 11C9.65053 11 9.32558 10.9606 9.03675 10.8819C8.74792 10.7986 8.47195 10.6551 8.2089 10.4514C8.14183 10.4005 8.09028 10.3426 8.05416 10.2778C8.01804 10.213 8 10.1481 8 10.0833C8 9.97687 8.04125 9.88425 8.12379 9.80556C8.21146 9.72222 8.31978 9.68056 8.44874 9.68056C8.54676 9.68056 8.63443 9.70833 8.7118 9.76389C8.90779 9.90742 9.10121 10.0162 9.29207 10.0903C9.48806 10.1644 9.7279 10.2014 10.0116 10.2014C10.2025 10.2014 10.3778 10.1759 10.5377 10.125C10.6976 10.0694 10.8265 9.9977 10.9246 9.90972C11.0226 9.81714 11.0716 9.71298 11.0716 9.59722C11.0716 9.45833 11.0251 9.34028 10.9323 9.24306C10.8395 9.14583 10.6976 9.0648 10.5068 9C10.3159 8.93056 10.0735 8.8773 9.7795 8.84028C9.50097 8.80326 9.25595 8.7477 9.04449 8.67361C8.83303 8.59492 8.65508 8.4977 8.51064 8.38194C8.37137 8.26159 8.26562 8.1227 8.19342 7.96528C8.12123 7.80326 8.08511 7.6227 8.08511 7.42361C8.08511 7.1227 8.17021 6.86576 8.34043 6.65278C8.51581 6.4398 8.75048 6.27778 9.04449 6.16667C9.33849 6.05556 9.66344 6 10.0193 6C10.3546 6 10.6641 6.04631 10.9478 6.13889C11.2366 6.22687 11.4713 6.34028 11.6518 6.47917C11.8014 6.58563 11.8762 6.70833 11.8762 6.84722C11.8762 6.94909 11.8324 7.04167 11.7447 7.125C11.657 7.20833 11.5538 7.25 11.4352 7.25C11.3578 7.25 11.2882 7.22917 11.2263 7.1875C11.1438 7.1227 11.0329 7.0625 10.8936 7.00694C10.7544 6.94674 10.6074 6.89813 10.4526 6.86111C10.2979 6.81944 10.1534 6.79861 10.0193 6.79861C9.79754 6.79861 9.60928 6.82409 9.45455 6.875C9.30498 6.92591 9.19149 6.99536 9.11412 7.08333C9.03675 7.17131 8.99807 7.27313 8.99807 7.38889C8.99807 7.52778 9.04193 7.64353 9.1296 7.73611C9.22244 7.82409 9.35397 7.89583 9.52418 7.95139C9.69439 8.0023 9.89811 8.04861 10.1354 8.09028C10.4449 8.14119 10.7157 8.20139 10.9478 8.27083C11.1851 8.34028 11.381 8.43056 11.5358 8.54167C11.6905 8.64813 11.8066 8.78472 11.8839 8.95139C11.9613 9.11341 12 9.3125 12 9.54861C12 9.84952 11.9072 10.1088 11.7215 10.3264C11.5358 10.544 11.2908 10.7106 10.9865 10.8264C10.6873 10.9421 10.3623 11 10.0116 11Z" fill="#272643"/>
<path d="M12.5 1H2.5C1.67157 1 1 1.67157 1 2.5V12.5C1 13.3284 1.67157 14 2.5 14H12.5C13.3284 14 14 13.3284 14 12.5V2.5C14 1.67157 13.3284 1 12.5 1Z" stroke="#272643"/>
</svg>
