<svg width="25" height="21" viewBox="0 0 25 21" fill="none" xmlns="http://www.w3.org/2000/svg">
<path d="M1 0.730713C0.447715 0.730713 0 1.17843 0 1.73071C0 2.283 0.447715 2.73071 1 2.73071V0.730713ZM24 2.73071C24.5523 2.73071 25 2.283 25 1.73071C25 1.17843 24.5523 0.730713 24 0.730713V2.73071ZM1 9.49994C0.447715 9.49994 0 9.94766 0 10.4999C0 11.0522 0.447715 11.4999 1 11.4999V9.49994ZM12.5 11.4999C13.0523 11.4999 13.5 11.0522 13.5 10.4999C13.5 9.94766 13.0523 9.49994 12.5 9.49994V11.4999ZM1 18.2692C0.447715 18.2692 0 18.7169 0 19.2692C0 19.8215 0.447715 20.2692 1 20.2692V18.2692ZM24 20.2692C24.5523 20.2692 25 19.8215 25 19.2692C25 18.7169 24.5523 18.2692 24 18.2692V20.2692ZM1 2.73071H24V0.730713H1V2.73071ZM1 11.4999H12.5V9.49994H1V11.4999ZM1 20.2692H24V18.2692H1V20.2692Z" fill="#272643"/>
</svg>
