<svg width="88" height="39" viewBox="0 0 88 39" fill="none" xmlns="http://www.w3.org/2000/svg">
<path d="M33.912 16C33.6133 16 33.3733 15.8773 33.192 15.632L29.496 10.768L30.952 9.28L34.776 14.336C34.9253 14.5387 35 14.7573 35 14.992C35 15.2907 34.888 15.536 34.664 15.728C34.44 15.9093 34.1893 16 33.912 16ZM34.104 4.72C34.36 4.72 34.568 4.82667 34.728 5.04C34.8987 5.24267 34.984 5.45067 34.984 5.664C34.984 5.888 34.888 6.096 34.696 6.288L27.992 12.704L27.912 10.416L33.32 5.088C33.5653 4.84267 33.8267 4.72 34.104 4.72ZM27.192 16C26.8933 16 26.6533 15.9093 26.472 15.728C26.2907 15.536 26.2 15.3013 26.2 15.024V5.776C26.2 5.49867 26.296 5.26933 26.488 5.088C26.68 4.896 26.9253 4.8 27.224 4.8C27.5227 4.8 27.7573 4.896 27.928 5.088C28.1093 5.26933 28.2 5.49867 28.2 5.776V15.024C28.2 15.3013 28.1093 15.536 27.928 15.728C27.7467 15.9093 27.5013 16 27.192 16ZM40.2126 16.16C39.306 16.16 38.5166 15.9733 37.8446 15.6C37.1833 15.216 36.6713 14.6987 36.3086 14.048C35.9566 13.3973 35.7806 12.6613 35.7806 11.84C35.7806 10.88 35.9726 10.064 36.3566 9.392C36.7513 8.70933 37.2633 8.18667 37.8926 7.824C38.522 7.46133 39.1886 7.28 39.8926 7.28C40.4366 7.28 40.9486 7.392 41.4286 7.616C41.9193 7.84 42.3513 8.14933 42.7246 8.544C43.098 8.928 43.3913 9.376 43.6046 9.888C43.8286 10.4 43.9406 10.944 43.9406 11.52C43.93 11.776 43.8286 11.984 43.6366 12.144C43.4446 12.304 43.2206 12.384 42.9646 12.384H36.8526L36.3726 10.784H42.2446L41.8926 11.104V10.672C41.8713 10.3627 41.7593 10.0853 41.5566 9.84C41.3646 9.59467 41.1193 9.40267 40.8206 9.264C40.5326 9.11467 40.2233 9.04 39.8926 9.04C39.5726 9.04 39.274 9.08267 38.9966 9.168C38.7193 9.25333 38.4793 9.39733 38.2766 9.6C38.074 9.80267 37.914 10.0747 37.7966 10.416C37.6793 10.7573 37.6206 11.1893 37.6206 11.712C37.6206 12.288 37.738 12.7787 37.9726 13.184C38.218 13.5787 38.5273 13.8827 38.9006 14.096C39.2846 14.2987 39.69 14.4 40.1166 14.4C40.5113 14.4 40.826 14.368 41.0606 14.304C41.2953 14.24 41.482 14.1653 41.6206 14.08C41.77 13.984 41.9033 13.904 42.0206 13.84C42.2126 13.744 42.394 13.696 42.5646 13.696C42.7993 13.696 42.9913 13.776 43.1406 13.936C43.3006 14.096 43.3806 14.2827 43.3806 14.496C43.3806 14.784 43.2313 15.0453 42.9326 15.28C42.6553 15.5147 42.266 15.7227 41.7646 15.904C41.2633 16.0747 40.746 16.16 40.2126 16.16ZM51.892 7.44C52.1693 7.44 52.3987 7.536 52.58 7.728C52.7613 7.90933 52.852 8.13867 52.852 8.416V15.216C52.852 16.1973 52.6653 16.976 52.292 17.552C51.9293 18.1387 51.4387 18.56 50.82 18.816C50.2013 19.072 49.508 19.2 48.74 19.2C48.3987 19.2 48.036 19.1733 47.652 19.12C47.268 19.0667 46.9533 18.9867 46.708 18.88C46.388 18.7413 46.164 18.5653 46.036 18.352C45.9187 18.1493 45.8973 17.9307 45.972 17.696C46.068 17.3867 46.2227 17.1733 46.436 17.056C46.6493 16.9493 46.8733 16.9387 47.108 17.024C47.2787 17.0773 47.5027 17.1573 47.78 17.264C48.0573 17.3813 48.3773 17.44 48.74 17.44C49.2307 17.44 49.636 17.3707 49.956 17.232C50.2867 17.104 50.532 16.88 50.692 16.56C50.8627 16.2507 50.948 15.824 50.948 15.28V14.208L51.284 14.592C51.1027 14.944 50.8733 15.2373 50.596 15.472C50.3293 15.696 50.0093 15.8667 49.636 15.984C49.2627 16.1013 48.836 16.16 48.356 16.16C47.7907 16.16 47.2947 16.032 46.868 15.776C46.452 15.5093 46.1267 15.1467 45.892 14.688C45.6573 14.2187 45.54 13.6853 45.54 13.088V8.416C45.54 8.13867 45.6307 7.90933 45.812 7.728C45.9933 7.536 46.2227 7.44 46.5 7.44C46.7773 7.44 47.0067 7.536 47.188 7.728C47.3693 7.90933 47.46 8.13867 47.46 8.416V12.512C47.46 13.2053 47.6093 13.696 47.908 13.984C48.2173 14.2613 48.644 14.4 49.188 14.4C49.5613 14.4 49.876 14.3307 50.132 14.192C50.388 14.0427 50.5853 13.8293 50.724 13.552C50.8627 13.264 50.932 12.9173 50.932 12.512V8.416C50.932 8.13867 51.0227 7.90933 51.204 7.728C51.3853 7.536 51.6147 7.44 51.892 7.44Z" fill="#BAE8E8"/>
<path d="M53.8 33.16C53.0533 33.16 52.3813 33.0693 51.784 32.888C51.1867 32.696 50.616 32.3653 50.072 31.896C49.9333 31.7787 49.8267 31.6453 49.752 31.496C49.6773 31.3467 49.64 31.1973 49.64 31.048C49.64 30.8027 49.7253 30.5893 49.896 30.408C50.0773 30.216 50.3013 30.12 50.568 30.12C50.7707 30.12 50.952 30.184 51.112 30.312C51.5173 30.6427 51.9173 30.8933 52.312 31.064C52.7173 31.2347 53.2133 31.32 53.8 31.32C54.1947 31.32 54.5573 31.2613 54.888 31.144C55.2187 31.016 55.4853 30.8507 55.688 30.648C55.8907 30.4347 55.992 30.1947 55.992 29.928C55.992 29.608 55.896 29.336 55.704 29.112C55.512 28.888 55.2187 28.7013 54.824 28.552C54.4293 28.392 53.928 28.2693 53.32 28.184C52.744 28.0987 52.2373 27.9707 51.8 27.8C51.3627 27.6187 50.9947 27.3947 50.696 27.128C50.408 26.8507 50.1893 26.5307 50.04 26.168C49.8907 25.7947 49.816 25.3787 49.816 24.92C49.816 24.2267 49.992 23.6347 50.344 23.144C50.7067 22.6533 51.192 22.28 51.8 22.024C52.408 21.768 53.08 21.64 53.816 21.64C54.5093 21.64 55.1493 21.7467 55.736 21.96C56.3333 22.1627 56.8187 22.424 57.192 22.744C57.5013 22.9893 57.656 23.272 57.656 23.592C57.656 23.8267 57.5653 24.04 57.384 24.232C57.2027 24.424 56.9893 24.52 56.744 24.52C56.584 24.52 56.44 24.472 56.312 24.376C56.1413 24.2267 55.912 24.088 55.624 23.96C55.336 23.8213 55.032 23.7093 54.712 23.624C54.392 23.528 54.0933 23.48 53.816 23.48C53.3573 23.48 52.968 23.5387 52.648 23.656C52.3387 23.7733 52.104 23.9333 51.944 24.136C51.784 24.3387 51.704 24.5733 51.704 24.84C51.704 25.16 51.7947 25.4267 51.976 25.64C52.168 25.8427 52.44 26.008 52.792 26.136C53.144 26.2533 53.5653 26.36 54.056 26.456C54.696 26.5733 55.256 26.712 55.736 26.872C56.2267 27.032 56.632 27.24 56.952 27.496C57.272 27.7413 57.512 28.056 57.672 28.44C57.832 28.8133 57.912 29.272 57.912 29.816C57.912 30.5093 57.72 31.1067 57.336 31.608C56.952 32.1093 56.4453 32.4933 55.816 32.76C55.1973 33.0267 54.5253 33.16 53.8 33.16ZM64.0829 24.28C64.8509 24.28 65.4322 24.4453 65.8269 24.776C66.2322 25.1067 66.5095 25.5493 66.6589 26.104C66.8082 26.648 66.8829 27.256 66.8829 27.928V32.024C66.8829 32.3013 66.7922 32.536 66.6109 32.728C66.4295 32.9093 66.2002 33 65.9229 33C65.6455 33 65.4162 32.9093 65.2349 32.728C65.0535 32.536 64.9629 32.3013 64.9629 32.024V27.928C64.9629 27.576 64.9202 27.2613 64.8349 26.984C64.7495 26.696 64.5949 26.4667 64.3709 26.296C64.1469 26.1253 63.8269 26.04 63.4109 26.04C63.0055 26.04 62.6589 26.1253 62.3709 26.296C62.0829 26.4667 61.8642 26.696 61.7149 26.984C61.5762 27.2613 61.5069 27.576 61.5069 27.928V32.024C61.5069 32.3013 61.4162 32.536 61.2349 32.728C61.0535 32.9093 60.8242 33 60.5469 33C60.2695 33 60.0402 32.9093 59.8589 32.728C59.6775 32.536 59.5869 32.3013 59.5869 32.024V22.136C59.5869 21.8587 59.6775 21.6293 59.8589 21.448C60.0402 21.256 60.2695 21.16 60.5469 21.16C60.8242 21.16 61.0535 21.256 61.2349 21.448C61.4162 21.6293 61.5069 21.8587 61.5069 22.136V26.104L61.2669 26.056C61.3629 25.8747 61.4962 25.6827 61.6669 25.48C61.8375 25.2667 62.0455 25.0693 62.2909 24.888C62.5362 24.7067 62.8082 24.5627 63.1069 24.456C63.4055 24.3387 63.7309 24.28 64.0829 24.28ZM77.2659 28.728C77.2659 29.6027 77.0685 30.376 76.6739 31.048C76.2899 31.7093 75.7672 32.2267 75.1059 32.6C74.4552 32.9733 73.7245 33.16 72.9139 33.16C72.1032 33.16 71.3672 32.9733 70.7059 32.6C70.0552 32.2267 69.5325 31.7093 69.1379 31.048C68.7539 30.376 68.5619 29.6027 68.5619 28.728C68.5619 27.8533 68.7539 27.0853 69.1379 26.424C69.5325 25.752 70.0552 25.2293 70.7059 24.856C71.3672 24.472 72.1032 24.28 72.9139 24.28C73.7245 24.28 74.4552 24.472 75.1059 24.856C75.7672 25.2293 76.2899 25.752 76.6739 26.424C77.0685 27.0853 77.2659 27.8533 77.2659 28.728ZM75.3459 28.728C75.3459 28.184 75.2339 27.7147 75.0099 27.32C74.7965 26.9147 74.5032 26.6 74.1299 26.376C73.7672 26.152 73.3619 26.04 72.9139 26.04C72.4659 26.04 72.0552 26.152 71.6819 26.376C71.3192 26.6 71.0259 26.9147 70.8019 27.32C70.5885 27.7147 70.4819 28.184 70.4819 28.728C70.4819 29.2613 70.5885 29.7307 70.8019 30.136C71.0259 30.5307 71.3192 30.84 71.6819 31.064C72.0552 31.288 72.4659 31.4 72.9139 31.4C73.3619 31.4 73.7672 31.288 74.1299 31.064C74.5032 30.84 74.7965 30.5307 75.0099 30.136C75.2339 29.7307 75.3459 29.2613 75.3459 28.728ZM83.3783 24.28C84.1249 24.28 84.7916 24.472 85.3783 24.856C85.9756 25.2293 86.4449 25.7467 86.7863 26.408C87.1383 27.0693 87.3142 27.8373 87.3142 28.712C87.3142 29.5867 87.1383 30.36 86.7863 31.032C86.4449 31.6933 85.9809 32.216 85.3943 32.6C84.8183 32.9733 84.1676 33.16 83.4423 33.16C83.0156 33.16 82.6156 33.0907 82.2423 32.952C81.8689 32.8133 81.5383 32.6373 81.2503 32.424C80.9729 32.2107 80.7543 31.9973 80.5943 31.784C80.4449 31.56 80.3703 31.3733 80.3703 31.224L80.8663 31.016V35.224C80.8663 35.5013 80.7756 35.7307 80.5943 35.912C80.4129 36.104 80.1836 36.2 79.9062 36.2C79.6289 36.2 79.3996 36.1093 79.2183 35.928C79.0369 35.7467 78.9463 35.512 78.9463 35.224V25.416C78.9463 25.1387 79.0369 24.9093 79.2183 24.728C79.3996 24.536 79.6289 24.44 79.9062 24.44C80.1836 24.44 80.4129 24.536 80.5943 24.728C80.7756 24.9093 80.8663 25.1387 80.8663 25.416V26.2L80.5943 26.056C80.5943 25.9173 80.6689 25.752 80.8183 25.56C80.9676 25.3573 81.1703 25.16 81.4263 24.968C81.6823 24.7653 81.9756 24.6 82.3063 24.472C82.6476 24.344 83.0049 24.28 83.3783 24.28ZM83.1383 26.04C82.6689 26.04 82.2583 26.1573 81.9062 26.392C81.5543 26.6267 81.2769 26.9467 81.0743 27.352C80.8823 27.7467 80.7863 28.2 80.7863 28.712C80.7863 29.2133 80.8823 29.672 81.0743 30.088C81.2769 30.4933 81.5543 30.8133 81.9062 31.048C82.2583 31.2827 82.6689 31.4 83.1383 31.4C83.6076 31.4 84.0129 31.2827 84.3543 31.048C84.7063 30.8133 84.9783 30.4933 85.1703 30.088C85.3729 29.672 85.4743 29.2133 85.4743 28.712C85.4743 28.2 85.3729 27.7467 85.1703 27.352C84.9783 26.9467 84.7063 26.6267 84.3543 26.392C84.0129 26.1573 83.6076 26.04 83.1383 26.04Z" fill="#272643"/>
<rect x="9.5" y="4.5" width="13" height="13" rx="1.5" stroke="#272643"/>
<path d="M16.172 5.782C16.264 5.782 16.352 5.818 16.436 5.89C16.52 5.958 16.562 6.052 16.562 6.172C16.562 6.208 16.556 6.248 16.544 6.292L15.362 9.772C15.338 9.844 15.294 9.9 15.23 9.94C15.17 9.976 15.106 9.996 15.038 10C14.97 10 14.902 9.98 14.834 9.94C14.77 9.9 14.72 9.842 14.684 9.766L13.796 7.75L13.85 7.786L12.974 9.766C12.938 9.842 12.886 9.9 12.818 9.94C12.754 9.98 12.688 10 12.62 10C12.556 9.996 12.492 9.976 12.428 9.94C12.364 9.9 12.32 9.844 12.296 9.772L11.114 6.292C11.102 6.248 11.096 6.208 11.096 6.172C11.096 6.052 11.138 5.958 11.222 5.89C11.31 5.818 11.4 5.782 11.492 5.782C11.568 5.782 11.638 5.802 11.702 5.842C11.77 5.882 11.816 5.94 11.84 6.016L12.794 8.908L12.662 8.902L13.514 6.856C13.546 6.784 13.592 6.728 13.652 6.688C13.712 6.644 13.78 6.624 13.856 6.628C13.932 6.624 14 6.644 14.06 6.688C14.12 6.728 14.164 6.784 14.192 6.856L14.972 8.812L14.876 8.872L15.818 6.016C15.842 5.94 15.888 5.882 15.956 5.842C16.024 5.802 16.096 5.782 16.172 5.782Z" fill="#272643"/>
<rect x="32.5" y="20.5" width="13" height="13" rx="1.5" stroke="#272643"/>
<path d="M36.25 21.8C36.538 21.8 36.794 21.854 37.018 21.962C37.242 22.07 37.43 22.222 37.582 22.418C37.738 22.61 37.854 22.834 37.93 23.09C38.01 23.342 38.05 23.612 38.05 23.9C38.05 24.288 37.98 24.642 37.84 24.962C37.7 25.278 37.496 25.53 37.228 25.718C36.964 25.906 36.638 26 36.25 26H34.816C34.712 26 34.624 25.966 34.552 25.898C34.484 25.826 34.45 25.738 34.45 25.634V22.166C34.45 22.062 34.484 21.976 34.552 21.908C34.624 21.836 34.712 21.8 34.816 21.8H36.25ZM36.19 25.31C36.442 25.31 36.648 25.246 36.808 25.118C36.968 24.986 37.084 24.814 37.156 24.602C37.232 24.386 37.27 24.152 37.27 23.9C37.27 23.712 37.248 23.534 37.204 23.366C37.164 23.194 37.1 23.044 37.012 22.916C36.924 22.784 36.812 22.68 36.676 22.604C36.54 22.528 36.378 22.49 36.19 22.49H35.14L35.2 22.436V25.376L35.164 25.31H36.19Z" fill="#272643"/>
<rect x="16.5" y="20.5" width="13" height="13" rx="1.5" stroke="#272643"/>
<path d="M19.8 26.06C19.52 26.06 19.268 26.026 19.044 25.958C18.82 25.886 18.606 25.762 18.402 25.586C18.35 25.542 18.31 25.492 18.282 25.436C18.254 25.38 18.24 25.324 18.24 25.268C18.24 25.176 18.272 25.096 18.336 25.028C18.404 24.956 18.488 24.92 18.588 24.92C18.664 24.92 18.732 24.944 18.792 24.992C18.944 25.116 19.094 25.21 19.242 25.274C19.394 25.338 19.58 25.37 19.8 25.37C19.948 25.37 20.084 25.348 20.208 25.304C20.332 25.256 20.432 25.194 20.508 25.118C20.584 25.038 20.622 24.948 20.622 24.848C20.622 24.728 20.586 24.626 20.514 24.542C20.442 24.458 20.332 24.388 20.184 24.332C20.036 24.272 19.848 24.226 19.62 24.194C19.404 24.162 19.214 24.114 19.05 24.05C18.886 23.982 18.748 23.898 18.636 23.798C18.528 23.694 18.446 23.574 18.39 23.438C18.334 23.298 18.306 23.142 18.306 22.97C18.306 22.71 18.372 22.488 18.504 22.304C18.64 22.12 18.822 21.98 19.05 21.884C19.278 21.788 19.53 21.74 19.806 21.74C20.066 21.74 20.306 21.78 20.526 21.86C20.75 21.936 20.932 22.034 21.072 22.154C21.188 22.246 21.246 22.352 21.246 22.472C21.246 22.56 21.212 22.64 21.144 22.712C21.076 22.784 20.996 22.82 20.904 22.82C20.844 22.82 20.79 22.802 20.742 22.766C20.678 22.71 20.592 22.658 20.484 22.61C20.376 22.558 20.262 22.516 20.142 22.484C20.022 22.448 19.91 22.43 19.806 22.43C19.634 22.43 19.488 22.452 19.368 22.496C19.252 22.54 19.164 22.6 19.104 22.676C19.044 22.752 19.014 22.84 19.014 22.94C19.014 23.06 19.048 23.16 19.116 23.24C19.188 23.316 19.29 23.378 19.422 23.426C19.554 23.47 19.712 23.51 19.896 23.546C20.136 23.59 20.346 23.642 20.526 23.702C20.71 23.762 20.862 23.84 20.982 23.936C21.102 24.028 21.192 24.146 21.252 24.29C21.312 24.43 21.342 24.602 21.342 24.806C21.342 25.066 21.27 25.29 21.126 25.478C20.982 25.666 20.792 25.81 20.556 25.91C20.324 26.01 20.072 26.06 19.8 26.06Z" fill="#272643"/>
<rect x="0.5" y="20.5" width="13" height="13" rx="1.5" stroke="#272643"/>
<path d="M3.992 22.742L2.696 25.79C2.668 25.866 2.624 25.926 2.564 25.97C2.508 26.01 2.446 26.03 2.378 26.03C2.27 26.03 2.19 26 2.138 25.94C2.086 25.88 2.06 25.806 2.06 25.718C2.06 25.682 2.066 25.644 2.078 25.604L3.572 22.016C3.604 21.936 3.652 21.874 3.716 21.83C3.784 21.786 3.856 21.768 3.932 21.776C4.004 21.776 4.07 21.798 4.13 21.842C4.194 21.882 4.24 21.94 4.268 22.016L5.744 25.532C5.764 25.584 5.774 25.632 5.774 25.676C5.774 25.784 5.738 25.87 5.666 25.934C5.598 25.998 5.522 26.03 5.438 26.03C5.366 26.03 5.3 26.008 5.24 25.964C5.184 25.92 5.14 25.86 5.108 25.784L3.818 22.778L3.992 22.742ZM2.882 25.058L3.212 24.368H4.832L4.946 25.058H2.882Z" fill="#272643"/>
</svg>
